<mxfile host="app.diagrams.net" modified="2020-05-07T08:18:36.593Z" agent="5.0 (Macintosh; Intel Mac OS X 10_15_4) AppleWebKit/537.36 (KHTML, like Gecko) Chrome/81.0.4044.129 Safari/537.36 Edg/81.0.416.68" etag="-_kKYTc0TrnfiMGuRWk-" version="13.0.8" type="github">
  <diagram id="OkuMJF9a-q8lBB3-wfrb" name="Page-1">
    <mxGraphModel dx="2893" dy="848" grid="1" gridSize="1" guides="1" tooltips="1" connect="1" arrows="1" fold="1" page="1" pageScale="1" pageWidth="827" pageHeight="1169" math="0" shadow="0">
      <root>
        <mxCell id="0" />
        <mxCell id="1" parent="0" />
        <mxCell id="KkUKfHodeVphHft2NAD2-1" value="MutatieVerzoek OHA" style="rounded=0;whiteSpace=wrap;html=1;align=left;verticalAlign=top;" parent="1" vertex="1">
          <mxGeometry x="-804" y="14" width="1414" height="1088" as="geometry" />
        </mxCell>
        <mxCell id="KkUKfHodeVphHft2NAD2-10" value="Wijzigen Hypotheek#2" style="rounded=0;whiteSpace=wrap;html=1;align=left;verticalAlign=top;" parent="1" vertex="1">
          <mxGeometry x="208" y="51" width="374" height="1007" as="geometry" />
        </mxCell>
        <mxCell id="KkUKfHodeVphHft2NAD2-3" value="Omzetten Lening" style="rounded=0;whiteSpace=wrap;html=1;verticalAlign=top;align=left;" parent="1" vertex="1">
          <mxGeometry x="227" y="419" width="331" height="627" as="geometry" />
        </mxCell>
        <mxCell id="KkUKfHodeVphHft2NAD2-6" value="Wijzigen Hypotheekgevers" style="rounded=0;whiteSpace=wrap;html=1;verticalAlign=top;align=left;" parent="1" vertex="1">
          <mxGeometry x="-786" y="61" width="330" height="337" as="geometry" />
        </mxCell>
        <mxCell id="KkUKfHodeVphHft2NAD2-7" value="Wijzigen Leningdeel#1" style="rounded=0;whiteSpace=wrap;html=1;verticalAlign=top;align=left;" parent="1" vertex="1">
          <mxGeometry x="335" y="428" width="212" height="229" as="geometry" />
        </mxCell>
        <mxCell id="KkUKfHodeVphHft2NAD2-2" value="Wijzigen Aflosvorm" style="rounded=0;whiteSpace=wrap;html=1;" parent="1" vertex="1">
          <mxGeometry x="419" y="593" width="120" height="60" as="geometry" />
        </mxCell>
        <mxCell id="KkUKfHodeVphHft2NAD2-4" value="Splitsen Leningdeel" style="rounded=0;whiteSpace=wrap;html=1;" parent="1" vertex="1">
          <mxGeometry x="419" y="452" width="120" height="60" as="geometry" />
        </mxCell>
        <mxCell id="KkUKfHodeVphHft2NAD2-5" value="Wijzigen Looptijd" style="rounded=0;whiteSpace=wrap;html=1;" parent="1" vertex="1">
          <mxGeometry x="419" y="522" width="120" height="60" as="geometry" />
        </mxCell>
        <mxCell id="KkUKfHodeVphHft2NAD2-8" value="Wijzigen Leningdeel#2" style="rounded=0;whiteSpace=wrap;html=1;verticalAlign=top;align=left;" parent="1" vertex="1">
          <mxGeometry x="335" y="663" width="212" height="91" as="geometry" />
        </mxCell>
        <mxCell id="KkUKfHodeVphHft2NAD2-9" value="Wijzigen Aflosvorm" style="rounded=0;whiteSpace=wrap;html=1;" parent="1" vertex="1">
          <mxGeometry x="418" y="689" width="120" height="60" as="geometry" />
        </mxCell>
        <mxCell id="KkUKfHodeVphHft2NAD2-11" value="Wijzigen Hypotheekgever#2" style="rounded=0;whiteSpace=wrap;html=1;verticalAlign=top;align=left;" parent="1" vertex="1">
          <mxGeometry x="-677" y="179" width="212" height="103" as="geometry" />
        </mxCell>
        <mxCell id="KkUKfHodeVphHft2NAD2-12" value="Ontslaan Hypotheekgever" style="rounded=0;whiteSpace=wrap;html=1;" parent="1" vertex="1">
          <mxGeometry x="-593" y="212" width="120" height="60" as="geometry" />
        </mxCell>
        <mxCell id="KkUKfHodeVphHft2NAD2-13" value="Hypotheekgever#1" style="rounded=0;whiteSpace=wrap;html=1;verticalAlign=top;align=left;" parent="1" vertex="1">
          <mxGeometry x="-677" y="87" width="212" height="89" as="geometry" />
        </mxCell>
        <mxCell id="KkUKfHodeVphHft2NAD2-14" value="Wijzigen Onderpand" style="rounded=0;whiteSpace=wrap;html=1;verticalAlign=top;align=left;" parent="1" vertex="1">
          <mxGeometry x="-786" y="407" width="330" height="165" as="geometry" />
        </mxCell>
        <mxCell id="KkUKfHodeVphHft2NAD2-15" value="Wijzigen&amp;nbsp; Object#1" style="rounded=0;whiteSpace=wrap;html=1;verticalAlign=top;align=left;" parent="1" vertex="1">
          <mxGeometry x="-675" y="489" width="212" height="78" as="geometry" />
        </mxCell>
        <mxCell id="KkUKfHodeVphHft2NAD2-16" value="Aanpassen&lt;br&gt;Object Adres" style="rounded=0;whiteSpace=wrap;html=1;" parent="1" vertex="1">
          <mxGeometry x="-587" y="512" width="120" height="51" as="geometry" />
        </mxCell>
        <mxCell id="9k2q3XVofTL7r0aBSs2--1" value="Wijzigen Persoonsgegevens&amp;nbsp;" style="rounded=0;whiteSpace=wrap;html=1;" vertex="1" parent="1">
          <mxGeometry x="-594" y="111" width="120" height="60" as="geometry" />
        </mxCell>
        <mxCell id="9k2q3XVofTL7r0aBSs2--2" value="Wijzigen Hypotheek#2" style="rounded=0;whiteSpace=wrap;html=1;align=left;verticalAlign=top;" vertex="1" parent="1">
          <mxGeometry x="-327" y="52" width="449" height="848" as="geometry" />
        </mxCell>
        <mxCell id="9k2q3XVofTL7r0aBSs2--3" value="Wijzigen Depots" style="rounded=0;whiteSpace=wrap;html=1;verticalAlign=top;align=left;" vertex="1" parent="1">
          <mxGeometry x="226" y="275" width="331" height="137" as="geometry" />
        </mxCell>
        <mxCell id="9k2q3XVofTL7r0aBSs2--4" value="Wijzigen Dekking (ORV)" style="rounded=0;whiteSpace=wrap;html=1;verticalAlign=top;align=left;" vertex="1" parent="1">
          <mxGeometry x="227" y="82" width="331" height="183" as="geometry" />
        </mxCell>
        <mxCell id="9k2q3XVofTL7r0aBSs2--5" value="Wijzigen Depot#1" style="rounded=0;whiteSpace=wrap;html=1;verticalAlign=top;align=left;" vertex="1" parent="1">
          <mxGeometry x="337" y="293" width="212" height="112" as="geometry" />
        </mxCell>
        <mxCell id="9k2q3XVofTL7r0aBSs2--6" value="Beindigen Depot&lt;br&gt;(afkoop leningdeel)" style="rounded=0;whiteSpace=wrap;html=1;" vertex="1" parent="1">
          <mxGeometry x="420" y="334" width="120" height="60" as="geometry" />
        </mxCell>
        <mxCell id="9k2q3XVofTL7r0aBSs2--7" value="Wijzigen FinancieleDekking#1" style="rounded=0;whiteSpace=wrap;html=1;verticalAlign=top;align=left;" vertex="1" parent="1">
          <mxGeometry x="338" y="147" width="212" height="112" as="geometry" />
        </mxCell>
        <mxCell id="9k2q3XVofTL7r0aBSs2--8" value="Voortzetten Dekking" style="rounded=0;whiteSpace=wrap;html=1;" vertex="1" parent="1">
          <mxGeometry x="421" y="193" width="120" height="60" as="geometry" />
        </mxCell>
        <mxCell id="9k2q3XVofTL7r0aBSs2--9" value="Wijzigen Leningdeel#3" style="rounded=0;whiteSpace=wrap;html=1;verticalAlign=top;align=left;" vertex="1" parent="1">
          <mxGeometry x="335" y="759" width="212" height="149" as="geometry" />
        </mxCell>
        <mxCell id="9k2q3XVofTL7r0aBSs2--10" value="Wijzigen Dekking#1" style="rounded=0;whiteSpace=wrap;html=1;verticalAlign=top;align=left;" vertex="1" parent="1">
          <mxGeometry x="340" y="811" width="199" height="91" as="geometry" />
        </mxCell>
        <mxCell id="9k2q3XVofTL7r0aBSs2--11" value="Beindigen Bancaire&lt;br&gt;Dekking&lt;br&gt;(door afkoop leningdeel)" style="rounded=0;whiteSpace=wrap;html=1;" vertex="1" parent="1">
          <mxGeometry x="414" y="837" width="120" height="60" as="geometry" />
        </mxCell>
        <mxCell id="9k2q3XVofTL7r0aBSs2--12" value="Wijzigen Tussenpersoon" style="rounded=0;whiteSpace=wrap;html=1;verticalAlign=top;align=left;" vertex="1" parent="1">
          <mxGeometry x="-787" y="576" width="330" height="73" as="geometry" />
        </mxCell>
        <mxCell id="9k2q3XVofTL7r0aBSs2--14" value="Aanwijzen&amp;nbsp;&lt;br&gt;Beherend TP" style="rounded=0;whiteSpace=wrap;html=1;" vertex="1" parent="1">
          <mxGeometry x="-584" y="586" width="120" height="51" as="geometry" />
        </mxCell>
        <mxCell id="9k2q3XVofTL7r0aBSs2--15" value="Aanpassen&lt;br&gt;Waarde Onderpand" style="rounded=0;whiteSpace=wrap;html=1;" vertex="1" parent="1">
          <mxGeometry x="-584" y="423" width="120" height="51" as="geometry" />
        </mxCell>
        <mxCell id="9k2q3XVofTL7r0aBSs2--16" value="Hypotheekgever#3" style="rounded=0;whiteSpace=wrap;html=1;verticalAlign=top;align=left;" vertex="1" parent="1">
          <mxGeometry x="-678" y="286" width="212" height="103" as="geometry" />
        </mxCell>
        <mxCell id="9k2q3XVofTL7r0aBSs2--17" value="Nieuwe Hypotheekgever" style="rounded=0;whiteSpace=wrap;html=1;" vertex="1" parent="1">
          <mxGeometry x="-592" y="322" width="120" height="60" as="geometry" />
        </mxCell>
        <mxCell id="9k2q3XVofTL7r0aBSs2--18" value="Wijzigen Dekking (ORV)" style="rounded=0;whiteSpace=wrap;html=1;verticalAlign=top;align=left;" vertex="1" parent="1">
          <mxGeometry x="228" y="83" width="331" height="183" as="geometry" />
        </mxCell>
        <mxCell id="9k2q3XVofTL7r0aBSs2--19" value="Wijzigen FinancieleDekking#1" style="rounded=0;whiteSpace=wrap;html=1;verticalAlign=top;align=left;" vertex="1" parent="1">
          <mxGeometry x="339" y="148" width="212" height="112" as="geometry" />
        </mxCell>
        <mxCell id="9k2q3XVofTL7r0aBSs2--20" value="Omzetten Lening" style="rounded=0;whiteSpace=wrap;html=1;verticalAlign=top;align=left;" vertex="1" parent="1">
          <mxGeometry x="-220" y="420" width="331" height="472" as="geometry" />
        </mxCell>
        <mxCell id="9k2q3XVofTL7r0aBSs2--21" value="Wijzigen Leningdeel#1" style="rounded=0;whiteSpace=wrap;html=1;verticalAlign=top;align=left;" vertex="1" parent="1">
          <mxGeometry x="-112" y="429" width="212" height="229" as="geometry" />
        </mxCell>
        <mxCell id="9k2q3XVofTL7r0aBSs2--22" value="Verlagen Leningdeel&lt;br&gt;(door Afkoop Dekking)" style="rounded=0;whiteSpace=wrap;html=1;" vertex="1" parent="1">
          <mxGeometry x="-28" y="594" width="120" height="60" as="geometry" />
        </mxCell>
        <mxCell id="9k2q3XVofTL7r0aBSs2--23" value="Vastzetten Variabele Rente" style="rounded=0;whiteSpace=wrap;html=1;" vertex="1" parent="1">
          <mxGeometry x="-28" y="453" width="120" height="60" as="geometry" />
        </mxCell>
        <mxCell id="9k2q3XVofTL7r0aBSs2--24" value="Verlagen Leningdeel&lt;br&gt;(door ExtraAflossing)" style="rounded=0;whiteSpace=wrap;html=1;" vertex="1" parent="1">
          <mxGeometry x="-28" y="523" width="120" height="60" as="geometry" />
        </mxCell>
        <mxCell id="9k2q3XVofTL7r0aBSs2--25" value="Wijzigen Leningdeel#2" style="rounded=0;whiteSpace=wrap;html=1;verticalAlign=top;align=left;" vertex="1" parent="1">
          <mxGeometry x="-112" y="664" width="212" height="91" as="geometry" />
        </mxCell>
        <mxCell id="9k2q3XVofTL7r0aBSs2--26" value="&lt;span&gt;Wijzigen Rente&lt;br&gt;(Omzetten Marktrente)&amp;nbsp;&lt;/span&gt;" style="rounded=0;whiteSpace=wrap;html=1;" vertex="1" parent="1">
          <mxGeometry x="-29" y="690" width="120" height="60" as="geometry" />
        </mxCell>
        <mxCell id="9k2q3XVofTL7r0aBSs2--27" value="Wijzigen Depots" style="rounded=0;whiteSpace=wrap;html=1;verticalAlign=top;align=left;" vertex="1" parent="1">
          <mxGeometry x="-221" y="276" width="331" height="137" as="geometry" />
        </mxCell>
        <mxCell id="9k2q3XVofTL7r0aBSs2--28" value="Wijzigen Dekking (ORV)" style="rounded=0;whiteSpace=wrap;html=1;verticalAlign=top;align=left;" vertex="1" parent="1">
          <mxGeometry x="-220" y="83" width="331" height="183" as="geometry" />
        </mxCell>
        <mxCell id="9k2q3XVofTL7r0aBSs2--29" value="Wijzigen Depot#1" style="rounded=0;whiteSpace=wrap;html=1;verticalAlign=top;align=left;" vertex="1" parent="1">
          <mxGeometry x="-110" y="294" width="212" height="112" as="geometry" />
        </mxCell>
        <mxCell id="9k2q3XVofTL7r0aBSs2--30" value="Beindigen Depot&lt;br&gt;(afkoop leningdeel)" style="rounded=0;whiteSpace=wrap;html=1;" vertex="1" parent="1">
          <mxGeometry x="-27" y="335" width="120" height="60" as="geometry" />
        </mxCell>
        <mxCell id="9k2q3XVofTL7r0aBSs2--31" value="Wijzigen FinancieleDekking#1" style="rounded=0;whiteSpace=wrap;html=1;verticalAlign=top;align=left;" vertex="1" parent="1">
          <mxGeometry x="-109" y="148" width="212" height="112" as="geometry" />
        </mxCell>
        <mxCell id="9k2q3XVofTL7r0aBSs2--32" value="Voortzetten Dekking" style="rounded=0;whiteSpace=wrap;html=1;" vertex="1" parent="1">
          <mxGeometry x="-26" y="194" width="120" height="60" as="geometry" />
        </mxCell>
        <mxCell id="9k2q3XVofTL7r0aBSs2--33" value="Wijzigen Leningdeel#3" style="rounded=0;whiteSpace=wrap;html=1;verticalAlign=top;align=left;" vertex="1" parent="1">
          <mxGeometry x="-112" y="760" width="212" height="127" as="geometry" />
        </mxCell>
        <mxCell id="9k2q3XVofTL7r0aBSs2--34" value="Wijzigen Dekking#1" style="rounded=0;whiteSpace=wrap;html=1;verticalAlign=top;align=left;" vertex="1" parent="1">
          <mxGeometry x="-96" y="785" width="188" height="97" as="geometry" />
        </mxCell>
        <mxCell id="9k2q3XVofTL7r0aBSs2--35" value="Voortzetten&lt;br&gt;Dekking" style="rounded=0;whiteSpace=wrap;html=1;" vertex="1" parent="1">
          <mxGeometry x="-33" y="818" width="120" height="60" as="geometry" />
        </mxCell>
        <mxCell id="9k2q3XVofTL7r0aBSs2--36" value="Wijzigen Dekking (ORV)" style="rounded=0;whiteSpace=wrap;html=1;verticalAlign=top;align=left;" vertex="1" parent="1">
          <mxGeometry x="-219" y="84" width="331" height="183" as="geometry" />
        </mxCell>
        <mxCell id="9k2q3XVofTL7r0aBSs2--37" value="Wijzigen FinancieleDekking#1" style="rounded=0;whiteSpace=wrap;html=1;verticalAlign=top;align=left;" vertex="1" parent="1">
          <mxGeometry x="-108" y="149" width="212" height="112" as="geometry" />
        </mxCell>
        <mxCell id="9k2q3XVofTL7r0aBSs2--38" value="Beindigen&lt;br&gt;ORV" style="rounded=0;whiteSpace=wrap;html=1;" vertex="1" parent="1">
          <mxGeometry x="421" y="193" width="120" height="60" as="geometry" />
        </mxCell>
        <mxCell id="9k2q3XVofTL7r0aBSs2--39" value="Voortzetten&lt;br&gt;ORV" style="rounded=0;whiteSpace=wrap;html=1;" vertex="1" parent="1">
          <mxGeometry x="-24" y="195" width="120" height="60" as="geometry" />
        </mxCell>
        <mxCell id="9k2q3XVofTL7r0aBSs2--40" value="beindigingsdatum" style="rounded=0;whiteSpace=wrap;html=1;fillColor=#ffe6cc;strokeColor=none;" vertex="1" parent="1">
          <mxGeometry x="527" y="211" width="105" height="27" as="geometry" />
        </mxCell>
        <mxCell id="9k2q3XVofTL7r0aBSs2--41" value="beindigingsdatum" style="rounded=0;whiteSpace=wrap;html=1;fillColor=#ffe6cc;strokeColor=none;" vertex="1" parent="1">
          <mxGeometry x="533" y="337" width="117" height="27" as="geometry" />
        </mxCell>
        <mxCell id="9k2q3XVofTL7r0aBSs2--42" value="Afkoop leningdeelnr" style="rounded=0;whiteSpace=wrap;html=1;fillColor=#ffe6cc;strokeColor=none;" vertex="1" parent="1">
          <mxGeometry x="535" y="367" width="115" height="27" as="geometry" />
        </mxCell>
        <mxCell id="9k2q3XVofTL7r0aBSs2--43" value="Einddatum" style="rounded=0;whiteSpace=wrap;html=1;fillColor=#ffe6cc;strokeColor=none;" vertex="1" parent="1">
          <mxGeometry x="534" y="551" width="115" height="27" as="geometry" />
        </mxCell>
        <mxCell id="9k2q3XVofTL7r0aBSs2--44" value="Nieuw Leningdeel#4" style="rounded=0;whiteSpace=wrap;html=1;verticalAlign=top;align=left;" vertex="1" parent="1">
          <mxGeometry x="335" y="913" width="212" height="125" as="geometry" />
        </mxCell>
        <mxCell id="9k2q3XVofTL7r0aBSs2--45" value="AflosvormType" style="rounded=0;whiteSpace=wrap;html=1;fillColor=#ffe6cc;strokeColor=none;" vertex="1" parent="1">
          <mxGeometry x="536" y="617" width="115" height="27" as="geometry" />
        </mxCell>
        <mxCell id="9k2q3XVofTL7r0aBSs2--46" value="Nieuw door splitsen" style="rounded=0;whiteSpace=wrap;html=1;" vertex="1" parent="1">
          <mxGeometry x="420" y="945" width="120" height="60" as="geometry" />
        </mxCell>
        <mxCell id="9k2q3XVofTL7r0aBSs2--47" value="AflosvormType" style="rounded=0;whiteSpace=wrap;html=1;fillColor=#ffe6cc;strokeColor=none;" vertex="1" parent="1">
          <mxGeometry x="536" y="910" width="115" height="27" as="geometry" />
        </mxCell>
        <mxCell id="9k2q3XVofTL7r0aBSs2--48" value="Bedrag" style="rounded=0;whiteSpace=wrap;html=1;fillColor=#ffe6cc;strokeColor=none;" vertex="1" parent="1">
          <mxGeometry x="535" y="941" width="115" height="27" as="geometry" />
        </mxCell>
        <mxCell id="9k2q3XVofTL7r0aBSs2--49" value="Looptijd" style="rounded=0;whiteSpace=wrap;html=1;fillColor=#ffe6cc;strokeColor=none;" vertex="1" parent="1">
          <mxGeometry x="536" y="971" width="115" height="27" as="geometry" />
        </mxCell>
        <mxCell id="9k2q3XVofTL7r0aBSs2--50" value="Rente" style="rounded=0;whiteSpace=wrap;html=1;fillColor=#ffe6cc;strokeColor=none;" vertex="1" parent="1">
          <mxGeometry x="536" y="1001" width="115" height="27" as="geometry" />
        </mxCell>
        <mxCell id="9k2q3XVofTL7r0aBSs2--51" value="AflosvormType" style="rounded=0;whiteSpace=wrap;html=1;fillColor=#ffe6cc;strokeColor=none;" vertex="1" parent="1">
          <mxGeometry x="535" y="717" width="115" height="27" as="geometry" />
        </mxCell>
        <mxCell id="9k2q3XVofTL7r0aBSs2--52" value="beindigingsdatum" style="rounded=0;whiteSpace=wrap;html=1;fillColor=#ffe6cc;strokeColor=none;" vertex="1" parent="1">
          <mxGeometry x="530" y="819" width="117" height="27" as="geometry" />
        </mxCell>
        <mxCell id="9k2q3XVofTL7r0aBSs2--53" value="Afkoop leningdeelnr" style="rounded=0;whiteSpace=wrap;html=1;fillColor=#ffe6cc;strokeColor=none;" vertex="1" parent="1">
          <mxGeometry x="532" y="849" width="115" height="27" as="geometry" />
        </mxCell>
        <mxCell id="9k2q3XVofTL7r0aBSs2--54" value="LeningdeelId" style="rounded=0;whiteSpace=wrap;html=1;fillColor=#e1d5e7;strokeColor=none;" vertex="1" parent="1">
          <mxGeometry x="339" y="452" width="70" height="27" as="geometry" />
        </mxCell>
        <mxCell id="9k2q3XVofTL7r0aBSs2--55" value="DepotId" style="rounded=0;whiteSpace=wrap;html=1;fillColor=#e1d5e7;strokeColor=none;" vertex="1" parent="1">
          <mxGeometry x="342" y="318" width="70" height="27" as="geometry" />
        </mxCell>
        <mxCell id="9k2q3XVofTL7r0aBSs2--56" value="DekkingId" style="rounded=0;whiteSpace=wrap;html=1;fillColor=#e1d5e7;strokeColor=none;" vertex="1" parent="1">
          <mxGeometry x="341" y="837" width="70" height="27" as="geometry" />
        </mxCell>
        <mxCell id="9k2q3XVofTL7r0aBSs2--57" value="LeningdeelId" style="rounded=0;whiteSpace=wrap;html=1;fillColor=#e1d5e7;strokeColor=none;" vertex="1" parent="1">
          <mxGeometry x="342" y="689" width="70" height="27" as="geometry" />
        </mxCell>
        <mxCell id="9k2q3XVofTL7r0aBSs2--58" value="LeningdeelId" style="rounded=0;whiteSpace=wrap;html=1;fillColor=#e1d5e7;strokeColor=none;" vertex="1" parent="1">
          <mxGeometry x="341" y="780" width="70" height="27" as="geometry" />
        </mxCell>
        <mxCell id="9k2q3XVofTL7r0aBSs2--59" value="LeningdeelId" style="rounded=0;whiteSpace=wrap;html=1;fillColor=#e1d5e7;strokeColor=none;" vertex="1" parent="1">
          <mxGeometry x="342" y="939" width="70" height="27" as="geometry" />
        </mxCell>
        <mxCell id="9k2q3XVofTL7r0aBSs2--60" value="Looptijd" style="rounded=0;whiteSpace=wrap;html=1;fillColor=#ffe6cc;strokeColor=none;" vertex="1" parent="1">
          <mxGeometry x="534" y="523" width="115" height="27" as="geometry" />
        </mxCell>
        <mxCell id="9k2q3XVofTL7r0aBSs2--61" value="Bedrag" style="rounded=0;whiteSpace=wrap;html=1;fillColor=#ffe6cc;strokeColor=none;" vertex="1" parent="1">
          <mxGeometry x="532" y="455" width="115" height="27" as="geometry" />
        </mxCell>
      </root>
    </mxGraphModel>
  </diagram>
</mxfile>
